<?xml version="1.0"?>
<svg xmlns="http://www.w3.org/2000/svg" viewBox="0 0 200 200" width="200" height="200">
  <defs>
    <pattern id="scan-dim" width="6" height="3" patternUnits="userSpaceOnUse"><rect width="6" height="1.60" fill="#0ECAE3" opacity="0.14"></rect></pattern>
    <pattern id="scan-hot" width="6" height="3" patternUnits="userSpaceOnUse"><rect width="6" height="2.00" fill="#0ECAE3" opacity="0.95"></rect></pattern>
    <linearGradient id="beam-grad" x1="0" y1="0" x2="0" y2="1">
      <stop offset="0" stop-color="#0ECAE3" stop-opacity="0"></stop><stop offset="0.38" stop-color="#0ECAE3" stop-opacity="0.55"></stop>
      <stop offset="0.5" stop-color="#FFFFFF" stop-opacity="1"></stop><stop offset="0.62" stop-color="#0ECAE3" stop-opacity="0.55"></stop>
      <stop offset="1" stop-color="#0ECAE3" stop-opacity="0"></stop>
    </linearGradient>
    <radialGradient id="vig" cx="0.5" cy="0.5" r="0.7"><stop offset="0.6" stop-color="#000000" stop-opacity="0"></stop><stop offset="1" stop-color="#000000" stop-opacity="0.5"></stop></radialGradient>
    <clipPath id="screen"><rect x="22" y="22" width="156" height="156" rx="14"></rect></clipPath>
  </defs>
  <rect x="12" y="12" width="176" height="176" rx="24" fill="#102C44" stroke="#DEE5EC" stroke-width="2.4"></rect>
  <circle cx="24" cy="24" r="1.6" fill="#DEE5EC" opacity="0.55"></circle><circle cx="176" cy="24" r="1.6" fill="#DEE5EC" opacity="0.55"></circle>
  <circle cx="24" cy="176" r="1.6" fill="#DEE5EC" opacity="0.55"></circle><circle cx="176" cy="176" r="1.6" fill="#DEE5EC" opacity="0.55"></circle>
  <g clip-path="url(#screen)">
    <rect x="22" y="22" width="156" height="156" fill="#102C44"></rect>
    <rect x="22" y="22" width="156" height="156" fill="url(#scan-dim)"></rect>
    <g stroke="#0ECAE3" stroke-width="2" fill="none">
      <circle cx="100" cy="100" r="32"></circle><line x1="60" y1="100" x2="80" y2="100"></line><line x1="120" y1="100" x2="140" y2="100"></line>
      <line x1="100" y1="60" x2="100" y2="80"></line><line x1="100" y1="120" x2="100" y2="140"></line>
    </g>
    <circle cx="100" cy="100" r="5" fill="#FF0055"></circle>
    <g stroke="#DEE5EC" stroke-width="1.6" fill="none" opacity="0.7">
      <path d="M30 42 V30 H42"></path><path d="M158 30 H170 V42"></path><path d="M170 158 V170 H158"></path><path d="M42 170 H30 V158"></path>
    </g>
    <g transform="translate(0 -40)">
      <rect x="22" y="78" width="156" height="44" fill="url(#beam-grad)"></rect>
      <rect x="22" y="86" width="156" height="28" fill="url(#scan-hot)" opacity="0.9"></rect>
      <rect x="22" y="96.5" width="156" height="1" fill="#FF0055" opacity="0.85"></rect>
      <rect x="22" y="99.4" width="156" height="1.2" fill="#FFFFFF"></rect>
      <rect x="22" y="102.5" width="156" height="1" fill="#0ECAE3" opacity="0.95"></rect>
    </g>
    <rect x="22" y="22" width="156" height="156" fill="url(#vig)" pointer-events="none"></rect>
  </g>
  <rect x="12" y="12" width="176" height="176" rx="24" fill="none" stroke="#FFFFFF" stroke-width="0.6" opacity="0.18"></rect>
</svg>