<svg xmlns="http://www.w3.org/2000/svg" viewBox="0 0 200 200" width="200" height="200">
  <defs>
    <pattern id="scan-dim" width="6" height="3" patternUnits="userSpaceOnUse"><rect width="6" height="1.60" fill="#102C44" opacity="0.18"/></pattern>
    <pattern id="scan-hot" width="6" height="3" patternUnits="userSpaceOnUse"><rect width="6" height="2.00" fill="#102C44" opacity="0.85"/></pattern>
    <linearGradient id="beam-grad" x1="0" y1="0" x2="0" y2="1">
      <stop offset="0" stop-color="#0ECAE3" stop-opacity="0"/><stop offset="0.38" stop-color="#0ECAE3" stop-opacity="0.45"/>
      <stop offset="0.5" stop-color="#102C44" stop-opacity="1"/><stop offset="0.62" stop-color="#0ECAE3" stop-opacity="0.45"/>
      <stop offset="1" stop-color="#0ECAE3" stop-opacity="0"/>
    </linearGradient>
    <radialGradient id="vig" cx="0.5" cy="0.5" r="0.7"><stop offset="0.6" stop-color="#7B96B1" stop-opacity="0"/><stop offset="1" stop-color="#7B96B1" stop-opacity="0.18"/></radialGradient>
    <clipPath id="screen"><rect x="22" y="22" width="156" height="156" rx="14"/></clipPath>
  </defs>
  <rect x="12" y="12" width="176" height="176" rx="24" fill="#DEE5EC" stroke="#102C44" stroke-width="3.6"/>
  <circle cx="24" cy="24" r="1.6" fill="#102C44" opacity="0.55"/><circle cx="176" cy="24" r="1.6" fill="#102C44" opacity="0.55"/>
  <circle cx="24" cy="176" r="1.6" fill="#102C44" opacity="0.55"/><circle cx="176" cy="176" r="1.6" fill="#102C44" opacity="0.55"/>
  <g clip-path="url(#screen)">
    <rect x="22" y="22" width="156" height="156" fill="#DEE5EC"/>
    <rect x="22" y="22" width="156" height="156" fill="url(#scan-dim)"/>
    <g stroke="#102C44" stroke-width="10" fill="none">
      <circle cx="100" cy="100" r="44"/>
      <line x1="44" y1="100" x2="78" y2="100"/><line x1="122" y1="100" x2="156" y2="100"/>
      <line x1="100" y1="44" x2="100" y2="78"/><line x1="100" y1="122" x2="100" y2="156"/>
    </g>
    <circle cx="100" cy="100" r="7" fill="#FF0055"/>
    <g stroke="#102C44" stroke-width="4.5" fill="none" opacity="0.95">
      <path d="M30 48 V30 H48"/><path d="M152 30 H170 V48"/><path d="M170 152 V170 H152"/><path d="M48 170 H30 V152"/>
    </g>
    <g transform="translate(0,-39)">
      <rect x="22" y="78" width="156" height="44" fill="url(#beam-grad)"/>
      <rect x="22" y="86" width="156" height="28" fill="url(#scan-hot)" opacity="0.9"/>
      <rect x="22" y="96.5" width="156" height="1" fill="#FF0055" opacity="0.85"/>
      <rect x="22" y="99.4" width="156" height="1.2" fill="#102C44"/>
      <rect x="22" y="102.5" width="156" height="1" fill="#0ECAE3" opacity="0.95"/>
    </g>
    <rect x="22" y="22" width="156" height="156" fill="url(#vig)" pointer-events="none"/>
  </g>
</svg>
